HIERARCHY
ROOT Hips
{
	OFFSET	0.000000	0.000000	0.000000
	CHANNELS 6 Xposition Yposition Zposition Zrotation Xrotation Yrotation
	JOINT LeftHip
	{
		OFFSET	4.750000	0.000000	0.000000
		CHANNELS 3 Zrotation Xrotation Yrotation
		JOINT LeftKnee
		{
			OFFSET	0.000000	-16.000000	0.000000
			CHANNELS 3 Zrotation Xrotation Yrotation
			JOINT LeftAnkle
			{
				OFFSET	0.000000	-17.000000	0.000000
				CHANNELS 3 Zrotation Xrotation Yrotation
				End Site
				{
					OFFSET	0.000000	-5.000000	-2.250000
				}
			}
		}
	}
	JOINT RightHip
	{
		OFFSET	-4.750000	0.000000	0.000000
		CHANNELS 3 Zrotation Xrotation Yrotation
		JOINT RightKnee
		{
			OFFSET	0.000000	-16.000000	0.000000
			CHANNELS 3 Zrotation Xrotation Yrotation
			JOINT RightAnkle
			{
				OFFSET	0.000000	-17.000000	0.000000
				CHANNELS 3 Zrotation Xrotation Yrotation
				End Site
				{
					OFFSET	0.000000	-5.000000	-2.250000
				}
			}
		}
	}
	JOINT Chest
	{
		OFFSET	0.000000	3.000000	-1.000000
		CHANNELS 3 Zrotation Xrotation Yrotation
		JOINT LeftCollar
		{
			OFFSET	0.000000	15.000000	1.000000
			CHANNELS 3 Zrotation Xrotation Yrotation
			JOINT LeftShoulder
			{
				OFFSET	6.500000	0.000000	0.000000
				CHANNELS 3 Zrotation Xrotation Yrotation
				JOINT LeftElbow
				{
					OFFSET	0.000000	-11.500000	0.000000
					CHANNELS 3 Zrotation Xrotation Yrotation
					JOINT LeftWrist
					{
						OFFSET	0.000000	-9.500000	0.000000
						CHANNELS 3 Zrotation Xrotation Yrotation
						End Site
						{
							OFFSET	0.000000	-5.000000	0.000000
						}
					}
				}
			}
		}
		JOINT RightCollar
		{
			OFFSET	0.000000	15.000000	1.000000
			CHANNELS 3 Zrotation Xrotation Yrotation
			JOINT RightShoulder
			{
				OFFSET	-6.500000	0.000000	0.000000
				CHANNELS 3 Zrotation Xrotation Yrotation
				JOINT RightElbow
				{
					OFFSET	0.000000	-11.500000	0.000000
					CHANNELS 3 Zrotation Xrotation Yrotation
					JOINT RightWrist
					{
						OFFSET	0.000000	-9.500000	0.000000
						CHANNELS 3 Zrotation Xrotation Yrotation
						End Site
						{
							OFFSET	0.000000	-5.000000	0.000000
						}
					}
				}
			}
		}
		JOINT Neck
		{
			OFFSET	0.000000	15.000000	1.000000
			CHANNELS 3 Zrotation Xrotation Yrotation
			JOINT Head
			{
				OFFSET	0.000000	8.000000	0.000000
				CHANNELS 3 Zrotation Xrotation Yrotation
				End Site
				{
					OFFSET	0.000000	6.500000	0.000000
				}
			}
		}
	}
}
MOTION
Frames:     9
Frame Time: 0.016667
-0.165749	38.365505	0.026568	0.243977	-1.810697	1.309663	-2.161410	3.355455	0.009447	3.004798	0.862627	1.999922	-0.078511	4.059429	-2.155689	1.853134	4.174550	-4.989305	-2.997022	0.914740	1.999950	0.328057	3.854429	1.896499	-1.000000	-2.555908	0.000000	-0.483403	0.241691	0.002039	3.050559	-0.577871	5.000255	1.951857	-12.537156	-5.010230	-0.083282	0.457724	0.644852	1.534634	0.274822	-3.997864	-3.000000	0.773438	0.000000	-2.078456	-11.713284	14.983878	0.000000	-0.941350	0.000000	-0.160532	17.243446	0.046935	-0.493543	-11.276252	-0.096067	
-0.167296	38.370480	0.089478	0.243977	-1.810697	1.309663	-2.161410	3.355455	0.009447	3.004798	0.862627	1.999922	-0.078511	4.059429	-2.155689	1.853134	4.174550	-4.989305	-3.002647	1.075774	2.000048	0.328057	3.854429	1.896499	-1.000000	-2.555908	0.000000	-0.483403	0.241691	0.002039	3.050559	-0.577871	5.000255	1.951857	-12.537156	-5.010230	-0.083282	0.457724	0.644852	1.534634	0.274822	-3.997864	-3.000000	0.773438	0.000000	-2.078456	-11.713284	14.983878	0.000000	-0.941350	0.000000	-0.160532	17.243446	0.046935	-0.493543	-11.276252	-0.096067	
-0.167296	38.370480	0.089478	0.243977	-1.810697	1.309663	-2.161410	3.355455	0.009447	3.011413	0.673188	1.999833	-0.077738	4.088068	-1.994571	1.853134	4.174550	-4.989305	-3.002647	1.075774	2.000048	0.328057	3.854429	1.896499	-1.000000	-2.555908	0.000000	-0.483399	0.080564	0.000680	3.050559	-0.577871	5.000255	1.951857	-12.537156	-5.010230	-0.083282	0.457724	0.644852	1.523398	0.114087	-3.999186	-3.000000	0.773438	0.000000	-2.078456	-11.713284	14.983878	0.000000	-0.941350	0.000000	-0.160532	17.243446	0.046935	-0.493543	-11.276252	-0.096067	
-0.167296	38.370480	0.089478	0.243977	-1.810697	1.309663	-2.161410	3.355455	0.009447	3.011413	0.673188	1.999833	-0.077738	4.088068	-1.994571	1.853134	4.174550	-4.989305	-3.002647	1.075774	2.000048	0.328057	3.854429	1.896499	-1.000000	-2.555908	0.000000	-0.483403	0.241691	0.002039	3.033706	-0.385247	5.000113	1.951857	-12.537156	-5.010230	-0.244419	0.457722	0.645462	1.534634	0.274822	-3.997864	-3.000000	0.773438	0.000000	-2.078456	-11.713284	14.983878	0.000000	-0.941350	0.000000	-0.159891	17.182228	0.046748	-0.492001	-11.214014	-0.338082	
-0.165749	38.365505	0.026568	0.243977	-1.810697	1.309663	-2.322819	3.355415	0.018895	3.005790	0.834222	1.999907	-0.319909	4.096445	-1.977629	1.853134	4.174550	-4.989305	-2.997022	0.914740	1.999950	0.328057	3.854429	1.896499	-1.000000	-2.555908	0.000000	-0.483403	0.241691	0.002039	3.033706	-0.385247	5.000113	1.951857	-12.537156	-5.010230	-0.083282	0.457724	0.644852	1.534634	0.274822	-3.997864	-3.000000	0.773438	0.000000	-2.078456	-11.713284	14.983878	0.000000	-0.941350	0.000000	-0.159249	17.121239	0.046560	-0.494210	-11.314822	-0.178691	
-0.165617	38.365623	0.030573	0.243780	-1.804754	1.309326	-2.322874	3.516546	0.019804	3.005790	0.834222	1.999907	-0.319909	4.096445	-1.977629	1.853134	4.174550	-4.989305	-2.997022	0.914740	1.999950	0.328057	3.854429	1.896499	-1.000000	-2.555908	0.000000	-0.483403	0.241691	0.002039	3.033706	-0.385247	5.000113	1.951857	-12.537156	-5.010230	-0.083282	0.457724	0.644852	1.534634	0.274822	-3.997864	-3.000000	0.773438	0.000000	-2.078456	-11.713284	14.983878	0.000000	-0.941350	0.000000	-0.159249	17.121239	0.046560	-0.494210	-11.314822	-0.178691	
-0.162981	38.365906	0.049222	0.239847	-1.778974	1.292162	-2.322874	3.516546	0.019804	3.005790	0.834222	1.999907	-0.319909	4.096445	-1.977629	1.853134	4.174550	-4.989305	-2.997022	0.914740	1.999950	0.328057	3.854429	1.896499	-1.000000	-2.555908	0.000000	-0.483403	0.241691	0.002039	3.033706	-0.385247	5.000113	1.951857	-12.537156	-5.010230	-0.083282	0.457724	0.644852	1.534634	0.274822	-3.997864	-3.000000	0.966797	0.000000	-2.078456	-11.713284	14.983878	0.000000	-0.941350	0.000000	-0.159249	17.121239	0.046560	-0.494210	-11.314822	-0.178691	
-0.168308	38.369095	0.174277	0.237387	-1.754077	1.282367	-2.322874	3.516546	0.019804	3.005790	0.834222	1.999907	-0.319909	4.096445	-1.977629	1.867188	4.335071	-4.989895	-2.997022	0.914740	1.999950	0.328057	3.854429	1.896499	-1.000000	-2.555908	0.000000	-0.483403	0.241691	0.002039	3.050559	-0.577871	5.000255	1.951857	-12.537156	-5.010230	-0.083282	0.457724	0.644852	1.534634	0.274822	-3.997864	-3.000000	0.966797	0.000000	-2.078456	-11.713284	14.983878	0.000000	-0.941350	0.000000	-0.159249	17.121239	0.046560	-0.494210	-11.314822	-0.178691	
-0.167743	38.369514	0.191762	0.236538	-1.728136	1.280866	-2.322874	3.516546	0.019804	3.005790	0.834222	1.999907	-0.319909	4.096445	-1.977629	1.867188	4.335071	-4.989895	-2.997022	0.914740	1.999950	0.328057	3.854429	1.896499	-1.000000	-2.741211	0.000000	-0.322268	0.241695	0.001359	3.050559	-0.577871	5.000255	1.951857	-12.537156	-5.010230	-0.083282	0.457724	0.644852	1.695376	0.263587	-3.998620	-3.000000	0.966797	0.000000	-2.078456	-11.713284	14.983878	0.000000	-0.941350	0.000000	-0.159249	17.121239	0.046560	-0.494210	-11.314822	-0.178691	
